<?xml version="1.0" encoding="utf-8"?>
<!-- Generator: Adobe Illustrator 24.0.2, SVG Export Plug-In . SVG Version: 6.00 Build 0)  -->
<svg version="1.1" id="Capa_1" xmlns="http://www.w3.org/2000/svg" xmlns:xlink="http://www.w3.org/1999/xlink" x="0px" y="0px"
	 viewBox="0 0 459 459" style="enable-background:new 0 0 459 459;" xml:space="preserve">
<style type="text/css">
	.st0{fill:#909090;}
</style>
<g id="delete">
	<path class="st0" d="M76.5,408c0,28,22.9,51,51,51h204c28,0,51-23,51-51V117c0-8.3-6.7-15-15-15H91.5c-8.3,0-15,6.7-15,15V408z
		 M391.7,25.5h-66.3c-4.3,0-8.4-1.7-11.5-4.8l-16-16c-3-3-7.2-4.8-11.5-4.8h-114c-4.3,0-8.4,1.7-11.5,4.8l-16,16
		c-3,3-7.2,4.8-11.5,4.8H67.3c-9,0-16.3,7.3-16.3,16.3v18.5c0,9,7.3,16.3,16.3,16.3h324.5c9,0,16.3-7.3,16.3-16.3V41.8
		C408,32.8,400.7,25.5,391.7,25.5z"/>
</g>
</svg>
