<?xml version="1.0" encoding="utf-8"?>
<!-- Generator: Adobe Illustrator 22.0.1, SVG Export Plug-In . SVG Version: 6.00 Build 0)  -->
<svg version="1.1" id="Слой_1" xmlns="http://www.w3.org/2000/svg" xmlns:xlink="http://www.w3.org/1999/xlink" x="0px" y="0px"
	 viewBox="0 0 200 200" style="enable-background:new 0 0 200 200;" xml:space="preserve">
<style type="text/css">
	.st0{fill:#FFFFFF;}
</style>
<path class="st0" d="M163.8,0H36.3C16.2,0,0,16.2,0,36.3v127.5c0,20,16.2,36.3,36.3,36.3h127.5c20,0,36.3-16.2,36.3-36.3V36.3
	C200,16.2,183.8,0,163.8,0z M155.9,109.9c0.9,1.2,3.2,3.5,6.7,6.9h0.1l0.1,0.1l0.1,0.1l0.2,0.2c7.8,7.3,13.1,13.4,15.9,18.5
	c0.2,0.3,0.4,0.6,0.6,1c0.2,0.4,0.4,1.2,0.6,2.2c0.2,1.1,0.2,2,0,2.8c-0.2,0.8-0.9,1.6-2.1,2.3c-1.2,0.7-2.8,1-4.9,1l-21.3,0.3
	c-1.3,0.3-2.9,0.1-4.7-0.4c-1.8-0.6-3.2-1.2-4.3-1.8l-1.7-1c-1.7-1.2-3.6-2.9-5.8-5.3c-2.2-2.4-4.1-4.6-5.7-6.5
	c-1.6-1.9-3.3-3.5-5.1-4.8c-1.8-1.3-3.4-1.7-4.7-1.3c-0.2,0.1-0.4,0.2-0.7,0.3c-0.3,0.1-0.8,0.5-1.4,1.2c-0.7,0.7-1.3,1.5-1.8,2.5
	c-0.5,1-1,2.4-1.4,4.3c-0.4,1.9-0.6,4.1-0.5,6.5c0,0.8-0.1,1.6-0.3,2.3c-0.2,0.7-0.4,1.2-0.6,1.6l-0.3,0.4c-1,1.1-2.5,1.7-4.4,1.8
	h-9.6c-3.9,0.2-8-0.2-12.1-1.4c-4.2-1.1-7.8-2.6-11-4.4c-3.1-1.8-6-3.6-8.6-5.5c-2.6-1.9-4.5-3.5-5.9-4.8l-2.1-2
	c-0.5-0.6-1.3-1.4-2.3-2.5c-1-1.1-3-3.6-6-7.6c-3-4-5.9-8.2-8.8-12.6c-2.9-4.4-6.3-10.3-10.2-17.6C28,79.3,24.3,71.7,21,63.9
	c-0.3-0.9-0.5-1.6-0.5-2.3c0-0.6,0.1-1.1,0.3-1.3l0.3-0.5c0.8-1.1,2.4-1.6,4.8-1.6L48.6,58c0.7,0.1,1.3,0.3,1.9,0.5s1,0.5,1.3,0.7
	l0.4,0.3c0.9,0.6,1.5,1.5,2,2.7c1.1,2.8,2.4,5.7,3.8,8.6c1.5,3,2.6,5.3,3.4,6.8l1.3,2.4c1.6,3.3,3.2,6.2,4.7,8.7s2.8,4.3,4,5.7
	c1.2,1.4,2.3,2.4,3.5,3.2c1.1,0.8,2,1.2,2.8,1.2c0.8,0,1.5-0.1,2.3-0.4c0.1,0,0.2-0.2,0.4-0.4c0.2-0.2,0.5-0.8,1-1.8
	s0.9-2.3,1.1-3.9c0.3-1.6,0.5-3.9,0.8-6.8c0.3-2.9,0.3-6.4,0-10.4c-0.1-2.2-0.4-4.3-0.8-6.1c-0.4-1.8-0.8-3.1-1.2-3.8l-0.5-1
	c-1.4-1.9-3.7-3.1-7.1-3.6c-0.7-0.1-0.6-0.8,0.4-2c1-1.1,2-1.9,3.2-2.5c2.9-1.4,9.6-2.1,19.9-2c4.6,0.1,8.3,0.4,11.2,1.1
	c1.1,0.3,2,0.7,2.8,1.1c0.8,0.5,1.3,1.1,1.7,2c0.4,0.9,0.7,1.8,0.9,2.7c0.2,0.9,0.3,2.2,0.3,3.8c0,1.6,0,3.1-0.1,4.6
	c-0.1,1.4-0.1,3.4-0.2,5.9c-0.1,2.5-0.1,4.8-0.1,6.9c0,0.6,0,1.8-0.1,3.5c-0.1,1.7-0.1,3.1,0,4c0,0.9,0.1,2.1,0.3,3.4
	c0.2,1.3,0.5,2.4,1,3.3c0.5,0.9,1.1,1.6,1.9,2.1c0.5,0.1,0.9,0.2,1.4,0.3s1.2-0.2,2.2-0.9c0.9-0.7,2-1.7,3.2-2.9
	c1.2-1.2,2.6-3.1,4.3-5.6c1.7-2.5,3.6-5.5,5.7-9c3.3-5.8,6.3-12.1,8.9-18.8c0.2-0.5,0.5-1,0.8-1.5c0.3-0.4,0.6-0.7,0.9-0.9l0.3-0.3
	l0.4-0.2c0,0,0.4-0.1,1.1-0.3c0.7-0.2,1.3-0.2,1.7,0l24-0.2c2.2-0.3,3.9-0.2,5.3,0.2c1.4,0.4,2.3,0.9,2.6,1.4l0.5,0.8
	c1.3,3.6-2.9,11.7-12.5,24.5c-1.3,1.8-3.1,4.1-5.4,7.1c-4.3,5.6-6.8,9.2-7.5,10.9C153.8,105.5,154.2,107.7,155.9,109.9z"/>
</svg>
