<?xml version="1.0" encoding="utf-8"?>
<!-- Generator: Adobe Illustrator 22.0.1, SVG Export Plug-In . SVG Version: 6.00 Build 0)  -->
<svg version="1.1" id="Слой_1" xmlns="http://www.w3.org/2000/svg" xmlns:xlink="http://www.w3.org/1999/xlink" x="0px" y="0px"
	 viewBox="0 0 261.7 261.3" style="enable-background:new 0 0 261.7 261.3;" xml:space="preserve">
<style type="text/css">
	.st0{fill:#3F3F3F;}
	.st1{fill:#FFFFFF;}
	.st2{fill:#FFFDFD;}
	.st3{fill:none;stroke:#000000;stroke-linecap:round;stroke-miterlimit:10;}
	.st4{fill:#161616;}
	.st5{fill:#FFFFFF;stroke:#FFFFFF;stroke-miterlimit:10;}
	.st6{fill:#FFFFFF;stroke:#E5E5E5;stroke-miterlimit:10;}
	.st7{fill:#FFFFFF;stroke:#DBD9D9;stroke-miterlimit:10;}
</style>
<g>
	<g>
		<path class="st0" d="M238.5,259.4h-215c-11.9,0-21.5-9.6-21.5-21.5v-215C2,11.1,11.6,1.4,23.5,1.4h215c11.9,0,21.5,9.6,21.5,21.5
			v215C260,249.8,250.4,259.4,238.5,259.4z"/>
	</g>
	<path class="st1" d="M167,75.4v10c0,1.7-1.2,3.2-2.9,3.4L135,93.2v75.7c0,11.1-9,20-20,20s-20-8.9-20-20s9-20,20-20
		c4.5,0,8.7,1.5,12,4V80.4c0-1.7,1.2-3.2,2.9-3.4L163,72C165.1,71.7,167,73.3,167,75.4z"/>
</g>
</svg>
