<?xml version="1.0" encoding="utf-8"?>
<!-- Generator: Adobe Illustrator 24.0.2, SVG Export Plug-In . SVG Version: 6.00 Build 0)  -->
<svg version="1.1" id="Слой_1" xmlns="http://www.w3.org/2000/svg" xmlns:xlink="http://www.w3.org/1999/xlink" x="0px" y="0px"
	 viewBox="0 0 120 101" style="enable-background:new 0 0 120 101;" xml:space="preserve">
<style type="text/css">
	.st0{fill:#FFFFFF;stroke:#000000;stroke-width:3;stroke-linecap:round;stroke-miterlimit:10;}
	.st1{fill:none;stroke:#000000;stroke-width:3;stroke-linecap:round;stroke-linejoin:round;stroke-miterlimit:10;}
	.st2{fill:none;stroke:#000000;stroke-width:3;stroke-linecap:round;stroke-miterlimit:10;}
	.st3{fill:#FFFFFF;}
</style>
<g>
	<path class="st3" d="M119.3,49c0,14.7-11.3,26.7-25.7,27.9c-0.8,0.1-1.7-0.3-2.3-0.9L72,56.7c-1.1-1.1-2.6-1.7-4.2-1.7H51.7
		c-1.6,0-3.1,0.6-4.2,1.7l-7.9,7.9L28.2,76c-0.5,0.5-1.1,0.8-1.8,0.9C25.8,77,25,77,24.3,77c-13.2,0-24-10.8-24-24
		c0-10.3,6.5-19.1,15.7-22.5c0.7-0.3,1.3-0.9,1.5-1.6C21,17.4,31.7,9,44.3,9c1.2,0,2.3,0.1,3.4,0.2c0.8,0.1,1.6-0.2,2.2-0.8
		C54.5,3.2,61.3,0,68.8,0c12,0,22,8.3,24.8,19.4c0.2,1,1.1,1.8,2.1,1.9C109,23.4,119.3,35,119.3,49z"/>
	<path class="st3" d="M59.8,100.5c-14.9,0-25.7-6.9-30.6-10.9c-0.7-0.5-0.7-1.5-0.2-2.1l2.6-3.1c0.5-0.6,1.4-0.7,2-0.2
		c4.4,3.5,14.1,9.7,27.5,9.3c11.7-0.4,20.2-5.6,24.7-9.2c0.6-0.5,1.5-0.4,2,0.2l2.6,3.1c0.5,0.6,0.5,1.6-0.2,2.1
		c-5.3,4.3-15.2,10.4-29,10.9C60.9,100.5,60.3,100.5,59.8,100.5z"/>
	<path class="st3" d="M60.3,86.9c-10.2,0-17.7-4.7-21.2-7.5c-0.5-0.4-0.6-1.2-0.2-1.7l3.1-3.6c0.4-0.5,1.1-0.5,1.6-0.2
		c2.9,2.3,9.1,6.1,17.6,5.8c7.4-0.2,12.8-3.5,15.8-5.8c0.5-0.4,1.2-0.3,1.6,0.1l3.1,3.6c0.4,0.5,0.4,1.2-0.1,1.6
		c-3.7,3-10.6,7.2-20,7.5C61,86.9,60.6,86.9,60.3,86.9z"/>
	<path class="st3" d="M60.3,72.4c-5.7,0-9.8-2.6-11.8-4.2c-0.3-0.2-0.3-0.6-0.1-0.9l3.8-4.4c0.2-0.2,0.6-0.3,0.8-0.1
		c1.3,1,4,2.6,7.6,2.5c3.2-0.1,5.6-1.6,6.8-2.5c0.3-0.2,0.6-0.2,0.8,0.1l3.8,4.4c0.2,0.3,0.2,0.7-0.1,0.9c-2,1.6-5.9,4-11.1,4.2
		C60.8,72.4,60.5,72.4,60.3,72.4z"/>
</g>
</svg>
